<svg xmlns="http://www.w3.org/2000/svg" width="594.747" height="543.258" viewBox="0 0 594.747 543.258">
    <g data-name="Group 418" style="opacity:.15">
        <path data-name="Path 538" d="M782.008 292.374a22.057 22.057 0 1 1-22.057-22.057 22.057 22.057 0 0 1 22.057 22.057" transform="translate(-345.902 -260.704)" style="fill:#e4fff2"/>
    </g>
    <g data-name="Group 534" style="opacity:.15">
        <path data-name="Path 538" d="M782.008 292.374a22.057 22.057 0 1 1-22.057-22.057 22.057 22.057 0 0 1 22.057 22.057" transform="translate(-569.454 -136.594)" style="fill:#e4fff2"/>
    </g>
    <g data-name="Group 532" style="opacity:.15">
        <path data-name="Path 538" d="M782.008 292.374a22.057 22.057 0 1 1-22.057-22.057 22.057 22.057 0 0 1 22.057 22.057" transform="translate(-646.541 -248.37)" style="fill:#e4fff2"/>
    </g>
    <g data-name="Group 533" style="opacity:.15">
        <path data-name="Path 538" d="M782.008 292.374a22.057 22.057 0 1 1-22.057-22.057 22.057 22.057 0 0 1 22.057 22.057" transform="translate(-234.126 153.253)" style="fill:#e4fff2"/>
    </g>
    <g data-name="Group 419" style="opacity:.2">
        <path data-name="Path 539" d="M898.622 592.505a53.971 53.971 0 1 1-53.971-53.971 53.972 53.972 0 0 1 53.971 53.971" transform="translate(-785.179 -123.038)" style="stroke-width:11px;stroke:#47aee1;fill:none"/>
    </g>
    <g data-name="Group 420" style="opacity:.2">
        <path data-name="Rectangle 115" style="stroke-linecap:round;stroke-linejoin:round;stroke:#47e1ae;stroke-width:11px;fill:none" d="M0 0h115.647v115.647H0z" transform="rotate(45.97 214.546 531.264)"/>
    </g>
    <g data-name="Group 421">
        <path data-name="Path 540" d="M574.744 994.331h286.969" transform="translate(-268.811 -452.918)" style="stroke-width:3.69px;stroke:#262222;stroke-linecap:round;stroke-linejoin:round;fill:none"/>
    </g>
    <g data-name="Group 422">
        <path data-name="Path 541" d="M207.233 994.331h211.453" transform="translate(-180.243 -452.918)" style="stroke-width:3.69px;stroke:#262222;stroke-linecap:round;stroke-linejoin:round;fill:none"/>
    </g>
    <g data-name="Group 423">
        <path data-name="Path 542" d="m628.329 472.169-1.18 5.668-7.893 2.452s-3.908-12.185-4.445-14.944c-3.831 2.835-25.673 8.966-29.447 9.51-.519-2.937-.522-28.389 20.7-28.389 18.7 0 27.078 18.72 27.57 20.914-1.1.642-5.3 2.2-5.3 4.788" transform="translate(-271.339 -320.885)" style="fill:#262222;stroke:#262222"/>
    </g>
    <g data-name="Group 424">
        <path data-name="Path 543" d="M632.514 544.905c-4.746 0-39.171 34.739-40.586 42.012-.618 3.175-11.091 57.37-11.091 57.37l57.437-16.042 3.367-73.082-8.183-10.258z" transform="translate(-270.28 -344.608)" style="stroke:#46514b;fill:#fffefe"/>
    </g>
    <g data-name="Group 425">
        <path data-name="Path 544" d="M555.448 641.2c-.1-4 32.876-108.092 36.591-111.626a12.37 12.37 0 0 1 9.388-3.647c1.639.078 9.516 3.8 11.181 7.724-2.84 6.722-9.675 10.456-9.675 10.456l-13.3 82.215z" transform="translate(-264.161 -340.03)" style="fill:#fff"/>
    </g>
    <g data-name="Group 426">
        <path data-name="Path 545" d="m593.927 759.5 47.653 58.989-23.115 23.232-69.95-61.156 16.549-22.765z" transform="translate(-262.49 -395.914)" style="fill:#262222;stroke:#262222"/>
    </g>
    <g data-name="Group 427">
        <path data-name="Path 546" d="M565.891 850.508c-6.441-5.833-81.752-99.671-81.752-111.287 0-25.887 29.373-35.066 37.392-37.081 11.037-1 60.027-5.1 67.733-4.784 5.557 6.02 70.071 19.906 79.421 18.71 0 4.681-7.436 37.425-60.2 37.425-5.531 0-47.126-1.659-47.9-1.659 0 9.734 26.66 73.122 29.2 77.437" transform="translate(-246.976 -381.344)" style="fill:#262222;stroke:#262222"/>
    </g>
    <g data-name="Group 428">
        <path data-name="Path 547" d="M667.536 522.543c42.705 0 51.951 77.045 51.951 98.911 0 27.884-11.311 50.16-16.73 52.245-15.263 5.869-71.289-13.354-74.845-22.454-17.317-44.32 11.192-128.7 39.624-128.7" transform="translate(-280.354 -339.219)" style="fill:#fffefe"/>
    </g>
    <g data-name="Group 429">
        <path data-name="Path 548" d="M633.751 453.056a38.727 38.727 0 0 1 8.635 11.24q.56 1.086 1.044 2.186" transform="translate(-283.032 -322.473)" style="stroke:#46514b;stroke-width:3.69px;stroke-linecap:round;stroke-linejoin:round;fill:none"/>
    </g>
    <g data-name="Group 430">
        <path data-name="Path 549" d="M585.834 484.462c-7.973-15.5-4.594-33.126 7.547-39.371a20.663 20.663 0 0 1 12.8-1.92" transform="translate(-270.443 -320.024)" style="stroke:#46514b;stroke-width:3.69px;stroke-linecap:round;stroke-linejoin:round;fill:none"/>
    </g>
    <g data-name="Group 431">
        <path data-name="Path 550" d="M632.455 513.809a19.8 19.8 0 0 1-5.751 4.468c-8.286 4.263-18.512 2.121-26.7-4.6" transform="translate(-274.898 -337.084)" style="stroke:#46514b;stroke-width:3.69px;stroke-linecap:round;stroke-linejoin:round;fill:none"/>
    </g>
    <g data-name="Group 432">
        <path data-name="Path 551" d="M638.438 475.3a7.276 7.276 0 1 1 3.6 9.24" transform="translate(-284.161 -326.727)" style="stroke:#46514b;stroke-width:3.69px;stroke-linecap:round;stroke-linejoin:round;fill:none"/>
    </g>
    <g data-name="Group 433">
        <path data-name="Path 552" d="M643.453 540.487c-1.075-3.833-4.921-15.645-9.722-20.06" transform="translate(-283.027 -338.709)" style="stroke:#46514b;stroke-width:3.69px;stroke-linecap:round;stroke-linejoin:round;fill:none"/>
    </g>
    <g data-name="Group 434">
        <path data-name="Path 553" d="M651.589 492.286c1.479 4.976 14.859 22.929 18.155 25.417-.2 2.165-4.456 6.344-9.245 9.9" transform="translate(-287.331 -331.927)" style="stroke:#46514b;stroke-width:3.69px;stroke-linecap:round;stroke-linejoin:round;fill:none"/>
    </g>
    <g data-name="Group 435">
        <path data-name="Path 554" d="m629.06 484.266 5.94-1.845 1.179-5.668" transform="translate(-281.901 -328.184)" style="stroke:#46514b;stroke-width:3.69px;stroke-linecap:round;stroke-linejoin:round;fill:none"/>
    </g>
    <g data-name="Group 436">
        <path data-name="Path 555" d="M608 471.735c4.419-1.475 8.191-2.941 9.584-3.971.39 2.006 2.564 9 3.721 12.663" transform="translate(-276.826 -326.018)" style="stroke:#46514b;stroke-width:3.69px;stroke-linecap:round;stroke-linejoin:round;fill:none"/>
    </g>
    <g data-name="Group 437">
        <path data-name="Path 556" d="M581.828 479.464c1.457-.21 5.6-1.25 10.357-2.612" transform="translate(-270.518 -328.207)" style="stroke:#46514b;stroke-width:3.69px;stroke-linecap:round;stroke-linejoin:round;fill:none"/>
    </g>
    <g data-name="Group 438">
        <path data-name="Path 557" d="M633.954 679.78c-5.991-2.99-10.159-5.9-11.048-8.173-5.343-13.672-6.323-31.157-4.291-48.8" transform="translate(-279.148 -363.382)" style="stroke:#46514b;stroke-width:3.69px;stroke-linecap:round;stroke-linejoin:round;fill:none"/>
    </g>
    <g data-name="Group 439">
        <path data-name="Path 558" d="M721.709 589.948c4.447 17.833 5.91 35.256 5.91 43.951 0 27.884-11.311 50.16-16.73 52.245-7.154 2.751-23.265-.011-38.73-4.66" transform="translate(-292.288 -355.463)" style="stroke:#46514b;stroke-width:3.69px;stroke-linecap:round;stroke-linejoin:round;fill:none"/>
    </g>
    <g data-name="Group 440">
        <path data-name="Path 559" d="M669.312 518.624a15.952 15.952 0 0 1 5.671-1.087c11.258 0 20.192 5.354 27.242 13.64" transform="translate(-291.602 -338.013)" style="stroke:#46514b;stroke-width:3.69px;stroke-linecap:round;stroke-linejoin:round;fill:none"/>
    </g>
    <g data-name="Group 441">
        <path data-name="Path 560" d="M630.151 566.579a123.5 123.5 0 0 1 11.386-24.215" transform="translate(-282.164 -343.996)" style="stroke:#46514b;stroke-width:3.69px;stroke-linecap:round;stroke-linejoin:round;fill:none"/>
    </g>
    <g data-name="Group 442">
        <path data-name="Path 561" d="M595.155 530.21c1.261-3.191 2.186-5.2 2.652-5.646a12.37 12.37 0 0 1 9.388-3.648c1.639.078 9.516 3.8 11.182 7.724" transform="translate(-273.73 -338.823)" style="stroke:#46514b;stroke-width:3.69px;stroke-linecap:round;stroke-linejoin:round;fill:none"/>
    </g>
    <g data-name="Group 443">
        <path data-name="Path 562" d="M562.685 612.2c5.6-17.884 12.7-39.751 18.3-55.976" transform="translate(-265.905 -347.336)" style="stroke:#46514b;stroke-width:3.69px;stroke-linecap:round;stroke-linejoin:round;fill:none"/>
    </g>
    <g data-name="Group 444">
        <path data-name="Path 563" d="M550.441 668.484c-.019-.746 1.113-4.952 2.989-11.324" transform="translate(-262.955 -371.661)" style="stroke:#46514b;stroke-width:3.69px;stroke-linecap:round;stroke-linejoin:round;fill:none"/>
    </g>
    <g data-name="Group 445">
        <path data-name="Path 564" d="M612.7 529.975c1.622.256 5.548 2.645 7.6 5.035" transform="translate(-277.959 -341.01)" style="stroke:#46514b;stroke-width:3.69px;stroke-linecap:round;stroke-linejoin:round;fill:none"/>
    </g>
    <g data-name="Group 446">
        <path data-name="Path 565" d="M606.708 537.565c1.62.257 5.548 2.646 7.6 5.035" transform="translate(-276.514 -342.839)" style="stroke:#46514b;stroke-width:3.69px;stroke-linecap:round;stroke-linejoin:round;fill:none"/>
    </g>
    <g data-name="Group 447">
        <path data-name="Path 566" d="M595.474 627.589c.134-3.642 9.14-66.474 13.078-78.823" transform="translate(-273.807 -345.539)" style="stroke:#46514b;stroke-width:3.69px;stroke-linecap:round;stroke-linejoin:round;fill:none"/>
    </g>
    <g data-name="Group 448">
        <path data-name="Path 567" d="M620.888 554.079c5.526-5.913 12.221-12.266 17.591-14.833" transform="translate(-279.932 -343.244)" style="stroke:#46514b;stroke-width:3.69px;stroke-linecap:round;stroke-linejoin:round;fill:none"/>
    </g>
    <g data-name="Group 449">
        <path data-name="Path 568" d="m391.3 600.688 34.927 56.743" transform="translate(-224.602 -358.052)" style="stroke:#46514b;stroke-width:3.69px;stroke-linecap:round;stroke-linejoin:round;fill:none"/>
    </g>
    <g data-name="Group 450">
        <path data-name="Path 569" d="M687.947 717c0 4.681-7.436 37.426-60.2 37.426-5.531 0-47.126-1.66-47.9-1.66 0 9.735 26.66 73.122 29.2 77.437" transform="translate(-270.04 -386.083)" style="stroke:#46514b;stroke-width:3.69px;stroke-linecap:round;stroke-linejoin:round;fill:none"/>
    </g>
    <g data-name="Group 451">
        <path data-name="Path 570" d="M516.523 698.655c-7.743 2.9-37.391 11.195-37.391 37.08 0 11.616 75.31 105.455 81.751 111.288" transform="translate(-245.769 -381.661)" style="stroke:#46514b;stroke-width:3.69px;stroke-linecap:round;stroke-linejoin:round;fill:none"/>
    </g>
    <g data-name="Group 452">
        <path data-name="Path 571" d="m581.883 892.683 34.517-22.015" transform="translate(-270.532 -423.116)" style="stroke:#46514b;stroke-width:3.69px;stroke-linecap:round;stroke-linejoin:round;fill:none"/>
    </g>
    <g data-name="Group 453">
        <path data-name="Path 572" d="m586.838 900.84 35.621-21.572" transform="translate(-271.726 -425.188)" style="stroke:#46514b;stroke-width:3.69px;stroke-linecap:round;stroke-linejoin:round;fill:none"/>
    </g>
    <g data-name="Group 454">
        <path data-name="Path 573" d="m605.6 837.005 22.14 20" transform="translate(-276.248 -415.003)" style="stroke:#46514b;stroke-width:3.69px;stroke-linecap:round;stroke-linejoin:round;fill:none"/>
    </g>
    <g data-name="Group 455">
        <path data-name="Path 574" d="m622.715 778.844 32.946 40.915" transform="translate(-280.372 -400.986)" style="stroke:#46514b;stroke-width:3.69px;stroke-linecap:round;stroke-linejoin:round;fill:none"/>
    </g>
    <g data-name="Group 456">
        <path data-name="Path 575" d="m661.905 828.879-29.11 28.289" transform="translate(-282.802 -413.045)" style="stroke:#46514b;stroke-width:3.69px;stroke-linecap:round;stroke-linejoin:round;fill:none"/>
    </g>
    <g data-name="Group 457">
        <path data-name="Path 576" d="m666.746 836.069-29.111 28.289" transform="translate(-283.968 -414.777)" style="stroke:#46514b;stroke-width:3.69px;stroke-linecap:round;stroke-linejoin:round;fill:none"/>
    </g>
    <g data-name="Group 458">
        <path data-name="Path 577" d="M370.5 961.2v25.147" transform="translate(-219.59 -444.933)" style="stroke-width:3.69px;stroke:#262222;stroke-linecap:round;stroke-linejoin:round;fill:none"/>
    </g>
    <g data-name="Group 459">
        <path data-name="Path 578" d="M370.5 698.657v152.571" transform="translate(-219.59 -381.662)" style="stroke-width:3.69px;stroke:#262222;stroke-linecap:round;stroke-linejoin:round;fill:none"/>
    </g>
    <g data-name="Group 460">
        <path data-name="Path 579" d="M523.535 698.655v224.417" transform="translate(-256.47 -381.661)" style="stroke-width:3.69px;stroke:#262222;stroke-linecap:round;stroke-linejoin:round;fill:none"/>
    </g>
    <g data-name="Group 461">
        <path data-name="Path 580" d="M689.729 546.751c20.334 7.078 9.979 50.629 4.256 52.1s-40.2-12.18-41.308-15.85 13.3-44.518 37.052-36.248" transform="translate(-287.579 -344.787)" style="fill:#fff;stroke:#46514b"/>
    </g>
    <g data-name="Group 462">
        <path data-name="Path 581" d="M662.7 548.166c5.887-5.9 13.327-9.452 22.02-6.425 20.335 7.078 9.979 50.629 4.256 52.1s-40.2-12.181-41.309-15.85c-.26-.867.344-3.807 1.732-7.686" transform="translate(-286.372 -343.58)" style="stroke:#46514b;stroke-width:3.69px;stroke-linecap:round;stroke-linejoin:round;fill:none"/>
    </g>
    <g data-name="Group 463">
        <path data-name="Path 582" d="M621.359 597.669c-1.657 2.429-10.817 32.059-10.817 32.059s-64.718 27.883-67.947 29.351c-1.174-1.614-5.044-4.549-12.914-4.549-14.385 0-16.877 9.538-16.877 11.593s21.866 6.6 27.736 6.458 87.906-12.621 90.841-14.088 22.563-47.832 22.563-47.832c-5.3-.282-29.809-7.865-32.585-12.991" transform="translate(-253.884 -357.324)" style="fill:#fff"/>
    </g>
    <g data-name="Group 464">
        <path data-name="Path 583" d="M579.353 661.436c-20.706 3.163-41.007 6.064-43.82 6.135-5.87.147-27.736-4.4-27.736-6.458s2.492-11.593 16.876-11.593c7.87 0 11.74 2.935 12.914 4.55 3.228-1.468 67.947-29.352 67.947-29.352s9.16-29.63 10.817-32.058" transform="translate(-252.677 -356.117)" style="stroke:#46514b;stroke-width:3.69px;stroke-linecap:round;stroke-linejoin:round;fill:none"/>
    </g>
    <g data-name="Group 465">
        <path data-name="Path 584" d="M680.827 609.777s-19.628 46.365-22.563 47.832c-.835.417-8.068 1.725-18.13 3.387" transform="translate(-284.57 -360.242)" style="stroke:#46514b;stroke-width:3.69px;stroke-linecap:round;stroke-linejoin:round;fill:none"/>
    </g>
    <g data-name="Group 466">
        <path data-name="Rectangle 116" style="fill:#47e1ae;stroke:#46514b" d="M0 0h125.258v11.623H0z" transform="translate(339.685 370.035)"/>
    </g>
    <g data-name="Group 467">
        <path data-name="Path 585" d="M692.593 775.152H614.2v-11.623h125.262v11.623h-22.01" transform="translate(-278.321 -397.296)" style="stroke:#46514b;stroke-width:3.69px;stroke-linecap:round;stroke-linejoin:round;fill:none"/>
    </g>
    <g data-name="Group 468">
        <path data-name="Rectangle 117" transform="translate(116.956 310.686)" style="fill:#47e1ae;stroke:#46514b" d="M0 0h190.578v9.567H0z"/>
    </g>
    <g data-name="Group 469">
        <path data-name="Path 586" d="M374.472 686.052h137.582v9.567H321.475v-9.567h29.332" transform="translate(-207.775 -378.624)" style="stroke:#46514b;stroke-width:3.69px;stroke-linecap:round;stroke-linejoin:round;fill:none"/>
    </g>
    <g data-name="Group 470">
        <path data-name="Rectangle 118" style="fill:#47aee1;stroke:#46514b" d="M0 0h67.12v8.048H0z" transform="translate(204.881 302.638)"/>
    </g>
    <g data-name="Group 471">
        <path data-name="Rectangle 119" transform="translate(201.625 299.381)" style="stroke:#46514b;stroke-width:3.69px;stroke-linecap:round;stroke-linejoin:round;fill:none" d="M0 0h67.12v8.048H0z"/>
    </g>
    <g data-name="Group 472">
        <path data-name="Path 587" d="m595.463 905.605 21.991 24.068-12.033 33.366 36.921-28.716-21.4-44.146" transform="translate(-273.804 -427.817)" style="fill:#fff"/>
    </g>
    <g data-name="Group 473">
        <path data-name="Path 588" d="m636.835 911.6-12.813-26.43" transform="translate(-280.687 -426.611)" style="stroke:#46514b;stroke-width:3.69px;stroke-linecap:round;stroke-linejoin:round;fill:none"/>
    </g>
    <g data-name="Group 474">
        <path data-name="Path 589" d="m590.455 905.5 21.991 24.068-12.033 33.366 36.921-28.717-3.74-7.714" transform="translate(-272.598 -431.509)" style="stroke:#46514b;stroke-width:3.69px;stroke-linecap:round;stroke-linejoin:round;fill:none"/>
    </g>
    <g data-name="Group 475">
        <path data-name="Path 590" d="m668.477 846.986 12.255 20.81 8.468 4.404-16.1 37.4-3.677-23.529-21.23-19.371" transform="translate(-286.512 -417.408)" style="fill:#fff"/>
    </g>
    <g data-name="Group 476">
        <path data-name="Path 591" d="m648.614 872.9-5.429-4.957" transform="translate(-285.305 -422.46)" style="stroke:#46514b;stroke-width:3.69px;stroke-linecap:round;stroke-linejoin:round;fill:none"/>
    </g>
    <g data-name="Group 477">
        <path data-name="Path 592" d="m668.761 841.979 12.256 20.81 8.465 4.405-16.1 37.4-3.682-23.526-4.555-4.159" transform="translate(-290.598 -416.202)" style="stroke:#46514b;stroke-width:3.69px;stroke-linecap:round;stroke-linejoin:round;fill:none"/>
    </g>
    <g data-name="Group 478">
        <path data-name="Path 593" d="M656.815 778.844V941.3" transform="translate(-288.59 -400.986)" style="stroke-width:3.69px;stroke:#262222;stroke-linecap:round;stroke-linejoin:round;fill:none"/>
    </g>
    <g data-name="Group 479">
        <path data-name="Path 594" d="M736.627 860.527v100.454" transform="translate(-307.824 -420.672)" style="stroke-width:3.69px;stroke:#262222;stroke-linecap:round;stroke-linejoin:round;fill:none"/>
    </g>
    <g data-name="Group 480">
        <path data-name="Path 595" d="M736.627 778.842v34.216" transform="translate(-307.824 -400.986)" style="stroke:#46514b;stroke-width:3.69px;stroke-linecap:round;stroke-linejoin:round;fill:none"/>
    </g>
    <g data-name="Group 481">
        <path data-name="Path 596" d="M608.548 483.322c.368 1.287 1.233 2.167 1.933 1.967s.969-1.4.6-2.691-1.233-2.167-1.933-1.967-.968 1.406-.6 2.691" transform="translate(-276.918 -329.112)" style="fill:#1b3c87;stroke:#46514b"/>
    </g>
    <g data-name="Group 482">
        <path data-name="Path 597" d="M597.361 502.874a6.187 6.187 0 0 1-.445 1.391" transform="translate(-274.154 -334.479)" style="stroke-width:3.14px;stroke:#46514b;stroke-linecap:round;stroke-linejoin:round;fill:none"/>
    </g>
    <g data-name="Group 483">
        <path data-name="Path 598" d="M596.434 492.963a16.744 16.744 0 0 1 .99 5.213" transform="translate(-274.038 -332.09)" style="stroke-width:3.14px;stroke:#46514b;stroke-linecap:round;stroke-linejoin:round;fill:none"/>
    </g>
    <g data-name="Group 484">
        <path data-name="Path 599" d="M622.76 501.911c.222 1.7-.968 4.343-3.268 5.885" transform="translate(-279.595 -334.247)" style="stroke-width:3.14px;stroke:#46514b;stroke-linecap:round;stroke-linejoin:round;fill:none"/>
    </g>
</svg>
