<?xml version="1.0" standalone="no"?>
<svg xmlns:xlink="http://www.w3.org/1999/xlink" id="wave" style="transform:rotate(0deg); transition: 0.3s" viewBox="0 0 1440 100" version="1.1" xmlns="http://www.w3.org/2000/svg"><defs><linearGradient id="sw-gradient-0" x1="0" x2="0" y1="1" y2="0"><stop stop-color="rgba(62, 243, 206, 1)" offset="0%"/><stop stop-color="rgba(11, 247, 255, 1)" offset="100%"/></linearGradient></defs><path style="transform:translate(0, 0px); opacity:1" fill="url(#sw-gradient-0)" d="M0,20L34.3,25C68.6,30,137,40,206,50C274.3,60,343,70,411,66.7C480,63,549,47,617,45C685.7,43,754,57,823,63.3C891.4,70,960,70,1029,66.7C1097.1,63,1166,57,1234,45C1302.9,33,1371,17,1440,13.3C1508.6,10,1577,20,1646,23.3C1714.3,27,1783,23,1851,31.7C1920,40,1989,60,2057,61.7C2125.7,63,2194,47,2263,46.7C2331.4,47,2400,63,2469,70C2537.1,77,2606,73,2674,60C2742.9,47,2811,23,2880,20C2948.6,17,3017,33,3086,48.3C3154.3,63,3223,77,3291,71.7C3360,67,3429,43,3497,41.7C3565.7,40,3634,60,3703,60C3771.4,60,3840,40,3909,40C3977.1,40,4046,60,4114,61.7C4182.9,63,4251,47,4320,41.7C4388.6,37,4457,43,4526,46.7C4594.3,50,4663,50,4731,53.3C4800,57,4869,63,4903,66.7L4937.1,70L4937.1,100L4902.9,100C4868.6,100,4800,100,4731,100C4662.9,100,4594,100,4526,100C4457.1,100,4389,100,4320,100C4251.4,100,4183,100,4114,100C4045.7,100,3977,100,3909,100C3840,100,3771,100,3703,100C3634.3,100,3566,100,3497,100C3428.6,100,3360,100,3291,100C3222.9,100,3154,100,3086,100C3017.1,100,2949,100,2880,100C2811.4,100,2743,100,2674,100C2605.7,100,2537,100,2469,100C2400,100,2331,100,2263,100C2194.3,100,2126,100,2057,100C1988.6,100,1920,100,1851,100C1782.9,100,1714,100,1646,100C1577.1,100,1509,100,1440,100C1371.4,100,1303,100,1234,100C1165.7,100,1097,100,1029,100C960,100,891,100,823,100C754.3,100,686,100,617,100C548.6,100,480,100,411,100C342.9,100,274,100,206,100C137.1,100,69,100,34,100L0,100Z"/></svg>